<?xml version="1.0" encoding="iso-8859-1"?>
<!-- Generator: Adobe Illustrator 19.0.0, SVG Export Plug-In . SVG Version: 6.00 Build 0)  -->
<svg version="1.1" id="Layer_1" xmlns="http://www.w3.org/2000/svg" xmlns:xlink="http://www.w3.org/1999/xlink" x="0px" y="0px"
	 viewBox="0 0 512.001 512.001" style="enable-background:new 0 0 512.001 512.001;" xml:space="preserve">
<g>
	<g>
		<path d="M487.846,103.984c0.229-2.813-0.359-5.565-1.71-8.121c-5.881-21.801-16.357-41.938-32.699-58.284
			c-16.353-16.362-36.506-26.845-58.323-32.725c-2.532-1.331-5.255-1.91-8.04-1.692c-29.315-6.112-61.121-3.329-92.076,8.058
			c-2.563,0.216-4.979,1.172-7.18,2.704c-24.126,9.976-47.422,24.571-67.731,44.879c-18.583,18.576-32.803,40.02-42.957,62.737
			c-1.022,1.641-1.692,3.351-2.021,5.195c-6.916,16.747-12.047,34.008-13.806,51.628c-0.046,0.465,0.04,0.894-0.002,1.359
			c-0.698,1.732-1.126,3.604-1.126,5.585c0,40.767-16.876,105.141-56.383,144.648l-90.63,90.63
			c-17.549,17.549-17.549,46.099,0,63.647c8.76,8.774,20.288,13.154,31.802,13.154c11.528,0,23.057-4.38,31.831-13.154l90.63-90.63
			c40.503-40.474,99.45-64.58,137.433-62.793c2.15,0.066,4.213-0.377,6.141-1.135c17.595-1.582,35.343-6.592,52.72-13.661
			c2.074-0.287,4.009-1.029,5.841-2.186c22.321-9.924,43.775-24.007,62.666-42.898c20.299-20.303,34.887-43.594,44.857-67.718
			c1.544-2.212,2.505-4.64,2.717-7.218C491.165,165.061,493.945,133.281,487.846,103.984z M55.583,463.009
			c-5.859,5.859-15.381,5.845-21.211,0.015c-5.845-5.859-5.845-15.366,0-21.226l10.605-10.605l21.211,21.211L55.583,463.009z
			 M456.148,98.502l-33.083,33.085l-21.213-21.213l39.637-39.637C447.702,79.289,452.869,88.442,456.148,98.502z M326.153,186.074
			l21.216,21.215l-29.301,29.302l-21.216-21.216L326.153,186.074z M275.641,194.164l-21.211-21.211l29.299-29.299l21.213,21.209
			L275.641,194.164z M347.363,164.863l33.278-33.278l21.213,21.213l-33.276,33.278L347.363,164.863z M392.362,35.021
			c10.117,3.285,19.521,8.06,28.112,14.31l-39.833,39.833L359.43,67.953L392.362,35.021z M326.153,143.652l-21.213-21.209
			l33.279-33.279l21.211,21.211L326.153,143.652z M355.834,29.127l-17.615,17.615l-13.753-13.753
			C335.017,30.555,345.54,29.147,355.834,29.127z M293.056,44.001l23.952,23.952l-33.279,33.279l-30.84-30.839
			C265.581,59.614,278.986,50.525,293.056,44.001z M231.536,91.465l30.981,30.978l-29.299,29.299l-25.007-25.007
			C214.579,114.407,222.167,102.47,231.536,91.465z M254.43,215.375l-43.66,43.66c-6.147-8.454-11.411-17.518-14.724-27.698
			l4.632-4.632l1.787-1.787l30.754-30.754L254.43,215.375z M191.156,181.354c0.824-8.256,2.455-16.445,4.728-24.525l16.124,16.124
			l-20.903,20.903C191.134,189.681,190.726,185.649,191.156,181.354z M160.66,359.609l-22.903-22.903
			c17.666-21.592,29.822-51.978,38.521-76.802c6.031,11.713,13.154,22.793,22.597,32.236c9.141,9.141,19.7,16.029,30.787,21.876
			C205.799,322.711,182.36,341.566,160.66,359.609z M259.807,294.855c-10.066-3.277-19.221-8.446-27.774-14.661l43.608-43.608
			l21.216,21.216L259.807,294.855z M297.075,300.008l20.993-20.995l15.331,15.331C321.225,297.646,309.025,299.94,297.075,300.008z
			 M363.977,282.499l-24.697-24.697l29.301-29.304l30.969,30.967C388.328,269.001,376.267,276.292,363.977,282.499z
			 M420.761,238.254l-30.97-30.967l33.274-33.278l24,24C440.533,212.095,431.557,225.55,420.761,238.254z M457.736,166.258
			l-13.46-13.46l17.032-17.036C461.253,145.805,460.083,155.973,457.736,166.258z"/>
	</g>
</g>
<g>
	<g>
		<path d="M422.029,375.148c-2.241-14.073-11.347-27.067-25.497-37.674C359.356,348.539,332,382.631,332,423.356
			c0,40.234,26.708,73.978,63.197,85.466c-4.975-9.238-8.48-18.961-9.51-29.099c-2.256-22.251,5.625-44.487,22.178-62.651
			C419.305,404.533,424.329,389.635,422.029,375.148z"/>
	</g>
</g>
<g>
	<g>
		<path d="M436.196,334.792c8.051,10.88,13.434,22.885,15.467,35.654c3.765,23.672-3.911,47.417-21.621,66.841
			c-10.898,11.938-15.908,25.562-14.502,39.404c1.291,12.728,8.443,24.95,19.858,35.31C478.646,505.468,512,468.398,512,423.356
			C512,378.589,479.059,341.656,436.196,334.792z"/>
	</g>
</g>
<g>
</g>
<g>
</g>
<g>
</g>
<g>
</g>
<g>
</g>
<g>
</g>
<g>
</g>
<g>
</g>
<g>
</g>
<g>
</g>
<g>
</g>
<g>
</g>
<g>
</g>
<g>
</g>
<g>
</g>
</svg>
